<svg width="119" height="71" fill="#FF9500" xmlns="http://www.w3.org/2000/svg"><path d="M68.914 47.555c-.268-4.947-.366-9.914-.841-14.84-.94-9.736-2.802-18.906-12.478-24.479-9.758-5.62-19.923-6.15-27.813-.367-1.885 1.383-2.588 1.216-3.991-.544C18.496.685 10.349-1.632 2.937 1.162c-.98.37-2.738.455-2.17 2.061.592 1.678 2 .484 2.973.197 6.608-1.952 12.385-.66 17.253 4.258 1.994 2.014 3.23 3.995.758 6.732-1.135 1.257-2.184 3.177-.747 5.06.779 1.02 1.954 1.276 3.14.858 2.11-.75 2.328-2.678 2.635-4.516.056-.338.118-.712.033-1.033-.69-2.65.86-4.06 2.826-5.327 1.665-1.08 3.38-1.978 5.308-2.514 12.871-3.576 27.232 5.581 29.711 18.95 1.874 10.076 1.526 20.243 1.399 30.408-.016 1.231-.874 3.24 1.024 3.548 2.133.344 1.519-1.767 1.813-3 .215-.893.517-1.766.805-2.645 2.18-6.61 5.556-12.67 8.79-18.793C83.789 25.372 89.3 15.48 97.757 7.614c.664-.616 1.695-1.33.927-2.274-.977-1.2-1.84-.107-2.582.573-5.606 5.137-10.012 11.213-13.85 17.71-4.622 7.83-8.735 15.938-13.337 23.932ZM95 64.375c-2.663 0-5.332-.029-7.997.016-.888.013-2.071-.082-1.972 1.297.07 1.08 1.073 1.026 1.873 1.06 10.17.426 20.444-.122 30.295 3.264.691.238 1.434.142 1.725-.679.302-.851-.309-1.276-.968-1.557a20.225 20.225 0 0 0-2.298-.777c-6.761-1.9-13.679-2.437-20.658-2.624ZM85.445 5.36c-.182-.213-.4-.645-.75-.844-.757-.43-1.325.196-1.863.564-4.256 2.894-7.174 6.81-8.844 11.65-.296.862-.75 1.986.347 2.445 1.506.63 1.66-.876 1.973-1.747 1.527-4.261 4.068-7.73 7.814-10.314.563-.39 1.189-.743 1.323-1.754Zm11.67 38.587c-.35-1.524-1.452-1.11-2.442-.836-3.977 1.102-7.347 3.279-10.432 5.931-.662.57-1.67 1.215-.76 2.244.888 1.007 1.642.166 2.34-.428 2.836-2.412 5.957-4.328 9.528-5.474.755-.241 1.6-.388 1.765-1.437Z"/><path d="M68.915 47.555c4.601-7.994 8.714-16.099 13.339-23.929 3.838-6.496 8.245-12.572 13.85-17.71.743-.68 1.605-1.773 2.583-.572.768.944-.264 1.657-.927 2.274-8.458 7.868-13.968 17.758-19.268 27.79-3.235 6.124-6.608 12.182-8.79 18.793-.288.876-.592 1.752-.805 2.646-.296 1.23.32 3.343-1.814 2.999-1.897-.307-1.04-2.317-1.023-3.548.127-10.166.47-20.332-1.4-30.407C62.183 12.52 47.82 3.364 34.95 6.94c-1.928.536-3.643 1.438-5.308 2.514-1.967 1.268-3.52 2.678-2.827 5.327.085.32.024.695-.032 1.033-.308 1.833-.526 3.762-2.635 4.516-1.184.42-2.361.162-3.14-.858-1.438-1.883-.388-3.803.747-5.06 2.472-2.737 1.236-4.718-.758-6.732-4.869-4.918-10.644-6.21-17.253-4.258-.974.287-2.382 1.48-2.974-.197-.567-1.605 1.19-1.69 2.17-2.061C10.353-1.63 18.5.688 23.794 7.327c1.404 1.76 2.106 1.927 3.992.544 7.89-5.784 18.048-5.253 27.812.367 9.676 5.573 11.54 14.743 12.478 24.479.473 4.927.57 9.89.839 14.838Z"/><path d="M94.998 64.374c6.982.187 13.9.724 20.654 2.624.781.213 1.548.473 2.298.778.659.275 1.27.705.968 1.556-.296.821-1.036.917-1.725.68-9.851-3.387-20.124-2.838-30.295-3.265-.801-.034-1.803.024-1.873-1.06-.091-1.374 1.09-1.283 1.972-1.297 2.666-.044 5.332-.016 8-.016Z" fill="FF9500"/><path d="M85.445 5.362c-.134 1.011-.759 1.365-1.324 1.754-3.748 2.584-6.287 6.053-7.814 10.314-.312.87-.466 2.378-1.973 1.747-1.097-.46-.645-1.583-.347-2.445 1.67-4.84 4.588-8.756 8.844-11.65.537-.365 1.106-.994 1.862-.564.353.2.571.631.752.844Z"/><path d="M97.113 43.95c-.165 1.047-1.01 1.194-1.766 1.436-3.57 1.146-6.691 3.062-9.527 5.474-.698.594-1.451 1.435-2.34.428-.91-1.029.099-1.675.76-2.244 3.084-2.65 6.455-4.83 10.432-5.931.99-.273 2.092-.687 2.44.836Z" fill="FF9500"/></svg>