<svg width="146" height="146" viewBox="0 0 146 146" fill="none" xmlns="http://www.w3.org/2000/svg">
<g clip-path="url(#clip0_1_271)">
<path d="M142.891 75.3571C144.608 75.3571 146 73.95 146 72.2143C146 70.4785 144.608 69.0714 142.891 69.0714C141.173 69.0714 139.781 70.4785 139.781 72.2143C139.781 73.95 141.173 75.3571 142.891 75.3571Z" fill="#ED6538"/>
<path d="M144.356 83.1616C145.639 82.0583 145.794 80.1127 144.703 78.8159C143.611 77.5191 141.686 77.3622 140.403 78.4655C139.12 79.5688 138.965 81.5144 140.056 82.8112C141.148 84.108 143.073 84.2649 144.356 83.1616Z" fill="#ED6538"/>
<path d="M141.439 92.2679C143.059 91.9432 144.111 90.3531 143.79 88.7163C143.468 87.0795 141.895 86.0158 140.276 86.3405C138.657 86.6652 137.604 88.2553 137.925 89.8921C138.247 91.5289 139.82 92.5926 141.439 92.2679Z" fill="#ED6538"/>
<path d="M139.02 100.437C140.59 100.041 141.546 98.4339 141.154 96.847C140.763 95.26 139.173 94.2943 137.603 94.6899C136.033 95.0856 135.077 96.6929 135.469 98.2798C135.86 99.8668 137.45 100.833 139.02 100.437Z" fill="#ED6538"/>
<path d="M136.325 107.89C137.67 107.042 138.081 105.252 137.242 103.893C136.403 102.533 134.632 102.118 133.287 102.966C131.942 103.814 131.532 105.604 132.371 106.963C133.21 108.323 134.98 108.738 136.325 107.89Z" fill="#ED6538"/>
<path d="M133.144 113.329C133.436 111.788 132.438 110.3 130.914 110.004C129.39 109.709 127.917 110.718 127.625 112.258C127.333 113.799 128.331 115.287 129.855 115.583C131.379 115.878 132.852 114.869 133.144 113.329Z" fill="#ED6538"/>
<path d="M125.118 122.363C126.637 122.363 127.868 121.118 127.868 119.583C127.868 118.048 126.637 116.803 125.118 116.803C123.599 116.803 122.367 118.048 122.367 119.583C122.367 121.118 123.599 122.363 125.118 122.363Z" fill="#ED6538"/>
<path d="M121.714 126.282C122.037 124.815 121.122 123.362 119.671 123.037C118.22 122.711 116.782 123.636 116.46 125.102C116.138 126.569 117.053 128.022 118.504 128.347C119.955 128.673 121.392 127.748 121.714 126.282Z" fill="#ED6538"/>
<path d="M113.357 133.478C114.702 132.922 115.347 131.369 114.797 130.009C114.248 128.649 112.711 127.997 111.366 128.553C110.02 129.109 109.375 130.662 109.925 132.022C110.475 133.382 112.012 134.033 113.357 133.478Z" fill="#ED6538"/>
<path d="M105.067 138.074C106.487 138.074 107.638 136.911 107.638 135.476C107.638 134.041 106.487 132.877 105.067 132.877C103.647 132.877 102.496 134.041 102.496 135.476C102.496 136.911 103.647 138.074 105.067 138.074Z" fill="#ED6538"/>
<path d="M99.532 140.156C100.153 138.902 99.6502 137.377 98.4097 136.75C97.1692 136.123 95.6604 136.63 95.0398 137.884C94.4192 139.138 94.9216 140.663 96.1621 141.29C97.4026 141.918 98.9113 141.41 99.532 140.156Z" fill="#ED6538"/>
<path d="M90.1776 143.83C91.4035 143.248 91.9304 141.772 91.3546 140.533C90.7789 139.294 89.3184 138.761 88.0926 139.343C86.8668 139.925 86.3398 141.401 86.9156 142.64C87.4914 143.879 88.9518 144.412 90.1776 143.83Z" fill="#ED6538"/>
<path d="M80.7391 145.547C82.0598 145.547 83.1305 144.465 83.1305 143.13C83.1305 141.795 82.0598 140.713 80.7391 140.713C79.4183 140.713 78.3477 141.795 78.3477 143.13C78.3477 144.465 79.4183 145.547 80.7391 145.547Z" fill="#ED6538"/>
<path d="M72.2188 146C73.5067 146 74.5508 144.945 74.5508 143.643C74.5508 142.341 73.5067 141.286 72.2188 141.286C70.9308 141.286 69.8867 142.341 69.8867 143.643C69.8867 144.945 70.9308 146 72.2188 146Z" fill="#ED6538"/>
<path d="M63.6965 145.426C64.9517 145.426 65.9692 144.397 65.9692 143.129C65.9692 141.86 64.9517 140.831 63.6965 140.831C62.4413 140.831 61.4238 141.86 61.4238 143.129C61.4238 144.397 62.4413 145.426 63.6965 145.426Z" fill="#ED6538"/>
<path d="M55.2998 143.817C56.5214 143.817 57.5117 142.816 57.5117 141.581C57.5117 140.347 56.5214 139.346 55.2998 139.346C54.0782 139.346 53.0879 140.347 53.0879 141.581C53.0879 142.816 54.0782 143.817 55.2998 143.817Z" fill="#ED6538"/>
<path d="M49.245 139.509C49.5181 138.34 48.8015 137.168 47.6445 136.892C46.4874 136.616 45.3281 137.34 45.055 138.51C44.7819 139.679 45.4985 140.851 46.6555 141.127C47.8126 141.403 48.9719 140.679 49.245 139.509Z" fill="#ED6538"/>
<path d="M41.4345 135.815C41.6197 134.661 40.8448 133.574 39.7037 133.387C38.5626 133.2 37.4874 133.983 37.3022 135.137C37.117 136.29 37.8918 137.377 39.0329 137.564C40.174 137.751 41.2492 136.968 41.4345 135.815Z" fill="#ED6538"/>
<path d="M32.0715 133.056C33.1939 133.056 34.1039 132.136 34.1039 131.001C34.1039 129.867 33.1939 128.947 32.0715 128.947C30.949 128.947 30.0391 129.867 30.0391 131.001C30.0391 132.136 30.949 133.056 32.0715 133.056Z" fill="#ED6538"/>
<path d="M25.3559 127.67C26.4455 127.67 27.3289 126.777 27.3289 125.676C27.3289 124.574 26.4455 123.681 25.3559 123.681C24.2662 123.681 23.3828 124.574 23.3828 125.676C23.3828 126.777 24.2662 127.67 25.3559 127.67Z" fill="#ED6538"/>
<path d="M20.6748 120.942C21.4221 120.187 21.4221 118.962 20.6748 118.207C19.9274 117.451 18.7158 117.451 17.9684 118.207C17.2211 118.962 17.2211 120.187 17.9684 120.942C18.7158 121.698 19.9274 121.698 20.6748 120.942Z" fill="#ED6538"/>
<path d="M14.475 114.611C15.4717 114.373 16.089 113.364 15.8538 112.356C15.6185 111.349 14.6198 110.725 13.6231 110.963C12.6264 111.2 12.0091 112.21 12.2443 113.217C12.4796 114.225 13.4783 114.849 14.475 114.611Z" fill="#ED6538"/>
<path d="M11.4201 105.555C11.5017 104.557 10.7677 103.681 9.7805 103.598C8.79333 103.516 7.92684 104.258 7.84516 105.256C7.76348 106.253 8.49753 107.129 9.48471 107.212C10.4719 107.294 11.3384 106.552 11.4201 105.555Z" fill="#ED6538"/>
<path d="M7.81501 97.9402C8.03502 96.998 7.45771 96.0539 6.52555 95.8316C5.59339 95.6092 4.65939 96.1927 4.43938 97.1349C4.21937 98.0771 4.79667 99.0212 5.72883 99.2435C6.66098 99.4659 7.595 98.8824 7.81501 97.9402Z" fill="#ED6538"/>
<path d="M4.23154 90.869C5.08612 90.5112 5.49193 89.5209 5.13796 88.6571C4.78398 87.7934 3.80426 87.3832 2.94969 87.741C2.09511 88.0988 1.6893 89.089 2.04327 89.9528C2.39725 90.8166 3.37697 91.2267 4.23154 90.869Z" fill="#ED6538"/>
<path d="M2.06132 82.4486C2.95274 82.4486 3.67538 81.7182 3.67538 80.8172C3.67538 79.9161 2.95274 79.1857 2.06132 79.1857C1.1699 79.1857 0.447266 79.9161 0.447266 80.8172C0.447266 81.7182 1.1699 82.4486 2.06132 82.4486Z" fill="#ED6538"/>
<path d="M1.5547 73.7757C2.41333 73.7757 3.10939 73.0722 3.10939 72.2043C3.10939 71.3364 2.41333 70.6329 1.5547 70.6329C0.696061 70.6329 0 71.3364 0 72.2043C0 73.0722 0.696061 73.7757 1.5547 73.7757Z" fill="#ED6538"/>
<path d="M3.51981 63.9366C3.70952 63.1242 3.21172 62.3102 2.40796 62.1184C1.60419 61.9267 0.798824 62.4298 0.609118 63.2422C0.419412 64.0547 0.917204 64.8687 1.72097 65.0604C2.52474 65.2522 3.33011 64.749 3.51981 63.9366Z" fill="#ED6538"/>
<path d="M4.60957 56.1286C5.1698 55.5624 5.1698 54.6443 4.60957 54.078C4.04934 53.5118 3.14102 53.5118 2.58079 54.078C2.02056 54.6443 2.02057 55.5624 2.5808 56.1286C3.14103 56.6949 4.04934 56.6949 4.60957 56.1286Z" fill="#ED6538"/>
<path d="M6.13301 48.2572C6.89251 48.2572 7.50821 47.6349 7.50821 46.8672C7.50821 46.0995 6.89251 45.4772 6.13301 45.4772C5.37351 45.4772 4.75781 46.0995 4.75781 46.8672C4.75781 47.6349 5.37351 48.2572 6.13301 48.2572Z" fill="#ED6538"/>
<path d="M9.64201 40.3329C10.3687 40.3329 10.9578 39.7374 10.9578 39.0029C10.9578 38.2683 10.3687 37.6729 9.64201 37.6729C8.91529 37.6729 8.32617 38.2683 8.32617 39.0029C8.32617 39.7374 8.91529 40.3329 9.64201 40.3329Z" fill="#ED6538"/>
<path d="M14.0637 32.8943C13.3697 32.8943 12.8086 32.3257 12.8086 31.6257C12.8086 30.9257 13.3711 30.3571 14.0637 30.3571C14.7562 30.3571 15.3187 30.9257 15.3187 31.6257C15.3187 32.3257 14.7562 32.8943 14.0637 32.8943Z" fill="#ED6538"/>
<path d="M19.3344 26.0471C19.9947 26.0471 20.5301 25.5061 20.5301 24.8386C20.5301 24.1711 19.9947 23.63 19.3344 23.63C18.674 23.63 18.1387 24.1711 18.1387 24.8386C18.1387 25.5061 18.674 26.0471 19.3344 26.0471Z" fill="#ED6538"/>
<path d="M26.4745 19.0133C26.6245 18.3974 26.2521 17.7751 25.6428 17.6235C25.0334 17.4718 24.4177 17.8482 24.2677 18.4642C24.1177 19.0801 24.4901 19.7024 25.0995 19.854C25.7089 20.0057 26.3245 19.6293 26.4745 19.0133Z" fill="#ED6538"/>
<path d="M33.1363 13.6654C33.2726 13.0802 32.9136 12.4942 32.3346 12.3565C31.7557 12.2188 31.1759 12.5816 31.0396 13.1668C30.9034 13.752 31.2623 14.3381 31.8413 14.4758C32.4203 14.6134 33.0001 14.2507 33.1363 13.6654Z" fill="#ED6538"/>
<path d="M39.3873 9.97567C38.8262 9.97567 38.3711 9.51567 38.3711 8.94853C38.3711 8.38139 38.8262 7.92139 39.3873 7.92139C39.9484 7.92139 40.4035 8.38139 40.4035 8.94853C40.4035 9.51567 39.9484 9.97567 39.3873 9.97567Z" fill="#ED6538"/>
<path d="M47.1697 6.37142C47.6982 6.37142 48.1266 5.93842 48.1266 5.40428C48.1266 4.87014 47.6982 4.43713 47.1697 4.43713C46.6413 4.43713 46.2129 4.87014 46.2129 5.40428C46.2129 5.93842 46.6413 6.37142 47.1697 6.37142Z" fill="#ED6538"/>
<path d="M55.3194 3.74861C54.8247 3.74861 54.4219 3.3429 54.4219 2.84147C54.4219 2.34004 54.8233 1.93433 55.3194 1.93433C55.8154 1.93433 56.2168 2.34004 56.2168 2.84147C56.2168 3.3429 55.8154 3.74861 55.3194 3.74861Z" fill="#ED6538"/>
<path d="M63.7156 2.14431C63.2534 2.14431 62.8789 1.76574 62.8789 1.2986C62.8789 0.831452 63.2534 0.452881 63.7156 0.452881C64.1778 0.452881 64.5523 0.831452 64.5523 1.2986C64.5523 1.76574 64.1778 2.14431 63.7156 2.14431Z" fill="#ED6538"/>
<path d="M72.2363 1.57143C72.6656 1.57143 73.0137 1.21965 73.0137 0.785714C73.0137 0.351776 72.6656 0 72.2363 0C71.807 0 71.459 0.351776 71.459 0.785714C71.459 1.21965 71.807 1.57143 72.2363 1.57143Z" fill="#ED6538"/>
<path d="M80.7571 2.02711C80.3613 2.02711 80.0391 1.70283 80.0391 1.3014C80.0391 0.899969 80.3599 0.575684 80.7571 0.575684C81.1542 0.575684 81.475 0.899969 81.475 1.3014C81.475 1.70283 81.1542 2.02711 80.7571 2.02711Z" fill="#ED6538"/>
<path d="M89.1553 3.51424C88.792 3.51424 88.498 3.2171 88.498 2.84995C88.498 2.48281 88.792 2.18567 89.1553 2.18567C89.5185 2.18567 89.8125 2.48281 89.8125 2.84995C89.8125 3.2171 89.5185 3.51424 89.1553 3.51424Z" fill="#ED6538"/>
<path d="M97.3049 6.01997C96.9742 6.01997 96.707 5.74997 96.707 5.41569C96.707 5.0814 96.9742 4.8114 97.3049 4.8114C97.6356 4.8114 97.9027 5.0814 97.9027 5.41569C97.9027 5.74997 97.6356 6.01997 97.3049 6.01997Z" fill="#ED6538"/>
<path d="M105.085 9.50715C104.789 9.50715 104.547 9.26429 104.547 8.96287C104.547 8.66144 104.787 8.41858 105.085 8.41858C105.384 8.41858 105.624 8.66144 105.624 8.96287C105.624 9.26429 105.384 9.50715 105.085 9.50715Z" fill="#ED6538"/>
<path d="M112.384 13.9171C112.12 13.9171 111.906 13.7 111.906 13.4343C111.906 13.1686 112.121 12.9514 112.384 12.9514C112.647 12.9514 112.862 13.1686 112.862 13.4343C112.862 13.7 112.647 13.9171 112.384 13.9171Z" fill="#ED6538"/>
<path d="M119.098 19.1829C118.866 19.1829 118.68 18.9929 118.68 18.76C118.68 18.5272 118.868 18.3372 119.098 18.3372C119.328 18.3372 119.516 18.5272 119.516 18.76C119.516 18.9929 119.328 19.1829 119.098 19.1829Z" fill="#ED6538"/>
<path d="M125.132 25.2243C124.935 25.2243 124.773 25.0615 124.773 24.8615C124.773 24.6615 124.935 24.4986 125.132 24.4986C125.33 24.4986 125.491 24.6615 125.491 24.8615C125.491 25.0615 125.33 25.2243 125.132 25.2243Z" fill="#ED6538"/>
<path d="M130.397 31.9529C130.232 31.9529 130.098 31.8172 130.098 31.65C130.098 31.4829 130.232 31.3472 130.397 31.3472C130.563 31.3472 130.697 31.4829 130.697 31.65C130.697 31.8172 130.563 31.9529 130.397 31.9529Z" fill="#ED6538"/>
<path d="M134.817 39.2728C134.686 39.2728 134.578 39.1643 134.578 39.0314C134.578 38.8985 134.686 38.79 134.817 38.79C134.948 38.79 135.056 38.8985 135.056 39.0314C135.056 39.1643 134.948 39.2728 134.817 39.2728Z" fill="#ED6538"/>
<path d="M138.322 47.0786C138.223 47.0786 138.143 46.9971 138.143 46.8971C138.143 46.7971 138.223 46.7157 138.322 46.7157C138.421 46.7157 138.502 46.7971 138.502 46.8971C138.502 46.9971 138.421 47.0786 138.322 47.0786Z" fill="#ED6538"/>
<path d="M140.858 55.2557C140.792 55.2557 140.738 55.2015 140.738 55.1343C140.738 55.0672 140.792 55.0129 140.858 55.0129C140.925 55.0129 140.979 55.0672 140.979 55.1343C140.979 55.2015 140.925 55.2557 140.858 55.2557Z" fill="#ED6538"/>
<path d="M142.386 63.6814C142.353 63.6814 142.326 63.6543 142.326 63.6214C142.326 63.5885 142.353 63.5614 142.386 63.5614C142.418 63.5614 142.445 63.5885 142.445 63.6214C142.445 63.6543 142.418 63.6814 142.386 63.6814Z" fill="#ED6538"/>
<g clip-path="url(#clip1_1_271)">
<path d="M73 120C98.9574 120 120 98.9574 120 73C120 47.0426 98.9574 26 73 26C47.0426 26 26 47.0426 26 73C26 98.9574 47.0426 120 73 120Z" fill="#ED6538"/>
<path d="M95.8607 71.0196C97.3855 71.8995 97.3855 74.1004 95.8607 74.9804L79.4305 84.4663L63.0002 93.9522C61.4754 94.8322 59.5703 93.7325 59.5703 91.9719V54.0289C59.5703 52.2683 61.4762 51.1686 63.0002 52.0485L79.4305 61.5344L95.8607 71.0203V71.0196Z" fill="white"/>
</g>
</g>
<defs>
<clipPath id="clip0_1_271">
<rect width="146" height="146" fill="white"/>
</clipPath>
<clipPath id="clip1_1_271">
<rect width="94" height="94" fill="white" transform="translate(26 26)"/>
</clipPath>
</defs>
</svg>
